<?xml version="1.0" encoding="UTF-8"?> <svg xmlns="http://www.w3.org/2000/svg" xmlns:xlink="http://www.w3.org/1999/xlink" class="highcharts-root" style="font-family:&quot;Lucida Grande&quot;, &quot;Lucida Sans Unicode&quot;, Arial, Helvetica, sans-serif;font-size:12px;" width="906" height="410" viewBox="0 0 906 410"><desc>Created with Highstock 6.2.0</desc><defs><clipPath id="highcharts-ml595li-5554"><rect x="0" y="0" width="826" height="239" fill="none"></rect></clipPath><pattern id="pattern-0" x="0" y="0" width="25" height="25" patternUnits="userSpaceOnUse" viewBox="0 0 100 100"><rect x="0" y="0" width="50" height="100" style="fill: black;"></rect></pattern><pattern id="pattern-0-1" patternTransform="matrix(0.998622, 0, 0, 0.631492, 470.523004, 217.561478)" xlink:href="#pattern-0"></pattern><linearGradient id="gradient-3" gradientUnits="userSpaceOnUse" x1="483.23" y1="173.014" x2="483.23" y2="247.429" gradientTransform="matrix(0.998622, 0, 0, 0.631492, 0.441619, 92.701881)"><stop offset="0" style="stop-color: rgba(255, 254, 254, 0);"></stop><stop offset="1" style="stop-color: rgba(102, 102, 102, 0.592);"></stop></linearGradient></defs><rect fill="#ffffff" class="highcharts-background" x="0" y="0" width="906" height="410" rx="0" ry="0"></rect><rect fill="none" class="highcharts-plot-background" x="70" y="10" width="826" height="239"></rect><g class="highcharts-pane-group" data-z-index="0"></g><g class="highcharts-grid highcharts-xaxis-grid " data-z-index="1"><path fill="none" data-z-index="1" class="highcharts-grid-line" d="M 110.5 10 L 110.5 249" opacity="1"></path><path fill="none" data-z-index="1" class="highcharts-grid-line" d="M 152.5 10 L 152.5 249" opacity="1"></path><path fill="none" data-z-index="1" class="highcharts-grid-line" d="M 193.5 10 L 193.5 249" opacity="1"></path><path fill="none" data-z-index="1" class="highcharts-grid-line" d="M 234.5 10 L 234.5 249" opacity="1"></path><path fill="none" data-z-index="1" class="highcharts-grid-line" d="M 276.5 10 L 276.5 249" opacity="1"></path><path fill="none" data-z-index="1" class="highcharts-grid-line" d="M 317.5 10 L 317.5 249" opacity="1"></path><path fill="none" data-z-index="1" class="highcharts-grid-line" d="M 358.5 10 L 358.5 249" opacity="1"></path><path fill="none" data-z-index="1" class="highcharts-grid-line" d="M 399.5 10 L 399.5 249" opacity="1"></path><path fill="none" data-z-index="1" class="highcharts-grid-line" d="M 441.5 10 L 441.5 249" opacity="1"></path><path fill="none" data-z-index="1" class="highcharts-grid-line" d="M 482.5 10 L 482.5 249" opacity="1"></path><path fill="none" data-z-index="1" class="highcharts-grid-line" d="M 523.5 10 L 523.5 249" opacity="1"></path><path fill="none" data-z-index="1" class="highcharts-grid-line" d="M 565.5 10 L 565.5 249" opacity="1"></path><path fill="none" data-z-index="1" class="highcharts-grid-line" d="M 606.5 10 L 606.5 249" opacity="1"></path><path fill="none" data-z-index="1" class="highcharts-grid-line" d="M 647.5 10 L 647.5 249" opacity="1"></path><path fill="none" data-z-index="1" class="highcharts-grid-line" d="M 688.5 10 L 688.5 249" opacity="1"></path><path fill="none" data-z-index="1" class="highcharts-grid-line" d="M 730.5 10 L 730.5 249" opacity="1"></path><path fill="none" data-z-index="1" class="highcharts-grid-line" d="M 771.5 10 L 771.5 249" opacity="1"></path><path fill="none" data-z-index="1" class="highcharts-grid-line" d="M 812.5 10 L 812.5 249" opacity="1"></path><path fill="none" data-z-index="1" class="highcharts-grid-line" d="M 854.5 10 L 854.5 249" opacity="1"></path><path fill="none" data-z-index="1" class="highcharts-grid-line" d="M 895.5 10 L 895.5 249" opacity="1"></path><path fill="none" data-z-index="1" class="highcharts-grid-line" d="M 69.5 10 L 69.5 249" opacity="1"></path></g><g class="highcharts-grid highcharts-yaxis-grid " data-z-index="1"><path fill="none" stroke="#e6e6e6" stroke-width="1" data-z-index="1" class="highcharts-grid-line" d="M 70 249.5 L 896 249.5" opacity="1"></path><path fill="none" stroke="#e6e6e6" stroke-width="1" data-z-index="1" class="highcharts-grid-line" d="M 70 201.5 L 896 201.5" opacity="1"></path><path fill="none" stroke="#e6e6e6" stroke-width="1" data-z-index="1" class="highcharts-grid-line" d="M 70 153.5 L 896 153.5" opacity="1"></path><path fill="none" stroke="#e6e6e6" stroke-width="1" data-z-index="1" class="highcharts-grid-line" d="M 70 106.5 L 896 106.5" opacity="1"></path><path fill="none" stroke="#e6e6e6" stroke-width="1" data-z-index="1" class="highcharts-grid-line" d="M 70 58.5 L 896 58.5" opacity="1"></path><path fill="none" stroke="#e6e6e6" stroke-width="1" data-z-index="1" class="highcharts-grid-line" d="M 70 9.5 L 896 9.5" opacity="1"></path></g><rect fill="none" class="highcharts-plot-border" data-z-index="1" x="70" y="10" width="826" height="239"></rect><g class="highcharts-axis highcharts-xaxis " data-z-index="2"><path fill="none" class="highcharts-tick" stroke="#ccd6eb" stroke-width="1" d="M 110.5 249 L 110.5 259" opacity="1"></path><path fill="none" class="highcharts-tick" stroke="#ccd6eb" stroke-width="1" d="M 152.5 249 L 152.5 259" opacity="1"></path><path fill="none" class="highcharts-tick" stroke="#ccd6eb" stroke-width="1" d="M 193.5 249 L 193.5 259" opacity="1"></path><path fill="none" class="highcharts-tick" stroke="#ccd6eb" stroke-width="1" d="M 234.5 249 L 234.5 259" opacity="1"></path><path fill="none" class="highcharts-tick" stroke="#ccd6eb" stroke-width="1" d="M 276.5 249 L 276.5 259" opacity="1"></path><path fill="none" class="highcharts-tick" stroke="#ccd6eb" stroke-width="1" d="M 317.5 249 L 317.5 259" opacity="1"></path><path fill="none" class="highcharts-tick" stroke="#ccd6eb" stroke-width="1" d="M 358.5 249 L 358.5 259" opacity="1"></path><path fill="none" class="highcharts-tick" stroke="#ccd6eb" stroke-width="1" d="M 399.5 249 L 399.5 259" opacity="1"></path><path fill="none" class="highcharts-tick" stroke="#ccd6eb" stroke-width="1" d="M 441.5 249 L 441.5 259" opacity="1"></path><path fill="none" class="highcharts-tick" stroke="#ccd6eb" stroke-width="1" d="M 482.5 249 L 482.5 259" opacity="1"></path><path fill="none" class="highcharts-tick" stroke="#ccd6eb" stroke-width="1" d="M 523.5 249 L 523.5 259" opacity="1"></path><path fill="none" class="highcharts-tick" stroke="#ccd6eb" stroke-width="1" d="M 565.5 249 L 565.5 259" opacity="1"></path><path fill="none" class="highcharts-tick" stroke="#ccd6eb" stroke-width="1" d="M 606.5 249 L 606.5 259" opacity="1"></path><path fill="none" class="highcharts-tick" stroke="#ccd6eb" stroke-width="1" d="M 647.5 249 L 647.5 259" opacity="1"></path><path fill="none" class="highcharts-tick" stroke="#ccd6eb" stroke-width="1" d="M 689.5 249 L 689.5 259" opacity="1"></path><path fill="none" class="highcharts-tick" stroke="#ccd6eb" stroke-width="1" d="M 730.5 249 L 730.5 259" opacity="1"></path><path fill="none" class="highcharts-tick" stroke="#ccd6eb" stroke-width="1" d="M 771.5 249 L 771.5 259" opacity="1"></path><path fill="none" class="highcharts-tick" stroke="#ccd6eb" stroke-width="1" d="M 812.5 249 L 812.5 259" opacity="1"></path><path fill="none" class="highcharts-tick" stroke="#ccd6eb" stroke-width="1" d="M 854.5 249 L 854.5 259" opacity="1"></path><path fill="none" class="highcharts-tick" stroke="#ccd6eb" stroke-width="1" d="M 896.5 249 L 896.5 259" opacity="1"></path><path fill="none" class="highcharts-tick" stroke="#ccd6eb" stroke-width="1" d="M 69.5 249 L 69.5 259" opacity="1"></path><path fill="none" class="highcharts-axis-line" stroke="#ccd6eb" stroke-width="1" data-z-index="7" d="M 70 249.5 L 896 249.5"></path></g><g class="highcharts-axis highcharts-yaxis " data-z-index="2"><text x="24.140625" data-z-index="7" text-anchor="middle" transform="translate(0,0) rotate(270 24.140625 129.5)" class="highcharts-axis-title" style="color: rgb(102, 102, 102); fill: rgb(102, 102, 102); white-space: pre;" y="129.5"><tspan>Frames per Second</tspan></text><path fill="none" class="highcharts-axis-line" data-z-index="7" d="M 70 10 L 70 249"></path></g><g class="highcharts-series-group" data-z-index="3"><g data-z-index="0.1" class="highcharts-series highcharts-series-0 highcharts-line-series highcharts-color-0 " transform="translate(70,10) scale(1 1)" clip-path="url(#highcharts-ml595li-5554)"><path fill="none" d="M 20.65 130.58960000000002 L 61.95 183.552 L 103.25 181.64 L 144.55 134.4136 L 185.85 105.3512 L 227.15 174.3744 L 268.45 124.28 L 309.75 182.9784 L 351.05 171.12400000000002 L 392.35 184.508 L 433.65 176.4776 L 474.95 118.92640000000002 L 516.25 130.58960000000002 L 557.55 147.224 L 598.85 124.28 L 640.15 163.85840000000002 L 681.45 181.64 L 722.75 178.772 L 764.05 127.9128 L 805.35 124.28" class="highcharts-graph" data-z-index="1" stroke="#D14648" stroke-width="2" stroke-linejoin="round" stroke-linecap="round"></path></g><g data-z-index="0.1" class="highcharts-markers highcharts-series-0 highcharts-line-series highcharts-color-0 " transform="translate(70,10) scale(1 1)" clip-path="none"><path fill="#D14648" d="M 24 131 A 4 4 0 1 1 23.99999800000017 130.99600000066667 Z" class="highcharts-point highcharts-color-0"></path><path fill="#D14648" d="M 65 184 A 4 4 0 1 1 64.99999800000016 183.99600000066667 Z" class="highcharts-point highcharts-color-0"></path><path fill="#D14648" d="M 107 182 A 4 4 0 1 1 106.99999800000016 181.99600000066667 Z" class="highcharts-point highcharts-color-0"></path><path fill="#D14648" d="M 148 134 A 4 4 0 1 1 147.99999800000018 133.99600000066667 Z" class="highcharts-point highcharts-color-0"></path><path fill="#D14648" d="M 189 105 A 4 4 0 1 1 188.99999800000018 104.99600000066667 Z" class="highcharts-point highcharts-color-0"></path><path fill="#D14648" d="M 231 174 A 4 4 0 1 1 230.99999800000018 173.99600000066667 Z" class="highcharts-point highcharts-color-0"></path><path fill="#D14648" d="M 272 124 A 4 4 0 1 1 271.9999980000002 123.99600000066667 Z" class="highcharts-point highcharts-color-0"></path><path fill="#D14648" d="M 313 183 A 4 4 0 1 1 312.9999980000002 182.99600000066667 Z" class="highcharts-point highcharts-color-0"></path><path fill="#D14648" d="M 355 171 A 4 4 0 1 1 354.9999980000002 170.99600000066667 Z" class="highcharts-point highcharts-color-0"></path><path fill="#D14648" d="M 396 185 A 4 4 0 1 1 395.9999980000002 184.99600000066667 Z" class="highcharts-point highcharts-color-0"></path><path fill="#D14648" d="M 437 176 A 4 4 0 1 1 436.9999980000002 175.99600000066667 Z" class="highcharts-point highcharts-color-0"></path><path fill="#D14648" d="M 478 119 A 4 4 0 1 1 477.9999980000002 118.99600000066667 Z" class="highcharts-point highcharts-color-0"></path><path fill="#D14648" d="M 520 131 A 4 4 0 1 1 519.9999980000001 130.99600000066667 Z" class="highcharts-point highcharts-color-0"></path><path fill="#D14648" d="M 561 147 A 4 4 0 1 1 560.9999980000001 146.99600000066667 Z" class="highcharts-point highcharts-color-0"></path><path fill="#D14648" d="M 602 124 A 4 4 0 1 1 601.9999980000001 123.99600000066667 Z" class="highcharts-point highcharts-color-0"></path><path fill="#D14648" d="M 644 164 A 4 4 0 1 1 643.9999980000001 163.99600000066667 Z" class="highcharts-point highcharts-color-0"></path><path fill="#D14648" d="M 685 182 A 4 4 0 1 1 684.9999980000001 181.99600000066667 Z" class="highcharts-point highcharts-color-0"></path><path fill="#D14648" d="M 726 179 A 4 4 0 1 1 725.9999980000001 178.99600000066667 Z" class="highcharts-point highcharts-color-0"></path><path fill="#D14648" d="M 768 128 A 4 4 0 1 1 767.9999980000001 127.99600000066667 Z" class="highcharts-point highcharts-color-0"></path><path fill="#D14648" d="M 809 124 A 4 4 0 1 1 808.9999980000001 123.99600000066667 Z" class="highcharts-point highcharts-color-0"></path></g><g data-z-index="0.1" class="highcharts-series highcharts-series-1 highcharts-line-series highcharts-color-1 " transform="translate(70,10) scale(1 1)" clip-path="url(#highcharts-ml595li-5554)"><path fill="none" d="M 20.65 124.28 L 61.95 125.0448 L 103.25 181.64 L 144.55 124.47120000000001 L 185.85 17.972800000000007 L 227.15 104.96880000000002 L 268.45 124.28 L 309.75 135.9432 L 351.05 89.0992 L 392.35 146.268 L 433.65 112.808 L 474.95 48.756 L 516.25 128.10399999999998 L 557.55 84.5104 L 598.85 124.28 L 640.15 140.3408 L 681.45 181.64 L 722.75 124.28 L 764.05 124.28 L 805.35 124.28" class="highcharts-graph" data-z-index="1" stroke="#323232" stroke-width="2" stroke-linejoin="round" stroke-linecap="round"></path></g><g data-z-index="0.1" class="highcharts-markers highcharts-series-1 highcharts-line-series highcharts-color-1 " transform="translate(70,10) scale(1 1)" clip-path="none"><path fill="#323232" d="M 24 124 A 4 4 0 1 1 23.99999800000017 123.99600000066667 Z" class="highcharts-point highcharts-color-1"></path><path fill="#323232" d="M 65 125 A 4 4 0 1 1 64.99999800000016 124.99600000066667 Z" class="highcharts-point highcharts-color-1"></path><path fill="#323232" d="M 107 182 A 4 4 0 1 1 106.99999800000016 181.99600000066667 Z" class="highcharts-point highcharts-color-1"></path><path fill="#323232" d="M 148 124 A 4 4 0 1 1 147.99999800000018 123.99600000066667 Z" class="highcharts-point highcharts-color-1"></path><path fill="#323232" d="M 189 18 A 4 4 0 1 1 188.99999800000018 17.996000000666665 Z" class="highcharts-point highcharts-color-1"></path><path fill="#323232" d="M 231 105 A 4 4 0 1 1 230.99999800000018 104.99600000066667 Z" class="highcharts-point highcharts-color-1"></path><path fill="#323232" d="M 272 124 A 4 4 0 1 1 271.9999980000002 123.99600000066667 Z" class="highcharts-point highcharts-color-1"></path><path fill="#323232" d="M 313 136 A 4 4 0 1 1 312.9999980000002 135.99600000066667 Z" class="highcharts-point highcharts-color-1"></path><path fill="#323232" d="M 355 89 A 4 4 0 1 1 354.9999980000002 88.99600000066667 Z" class="highcharts-point highcharts-color-1"></path><path fill="#323232" d="M 396 146 A 4 4 0 1 1 395.9999980000002 145.99600000066667 Z" class="highcharts-point highcharts-color-1"></path><path fill="#323232" d="M 437 113 A 4 4 0 1 1 436.9999980000002 112.99600000066667 Z" class="highcharts-point highcharts-color-1"></path><path fill="#323232" d="M 478 49 A 4 4 0 1 1 477.9999980000002 48.99600000066666 Z" class="highcharts-point highcharts-color-1"></path><path fill="#323232" d="M 520 128 A 4 4 0 1 1 519.9999980000001 127.99600000066667 Z" class="highcharts-point highcharts-color-1"></path><path fill="#323232" d="M 561 85 A 4 4 0 1 1 560.9999980000001 84.99600000066667 Z" class="highcharts-point highcharts-color-1"></path><path fill="#323232" d="M 602 124 A 4 4 0 1 1 601.9999980000001 123.99600000066667 Z" class="highcharts-point highcharts-color-1"></path><path fill="#323232" d="M 644 140 A 4 4 0 1 1 643.9999980000001 139.99600000066667 Z" class="highcharts-point highcharts-color-1"></path><path fill="#323232" d="M 685 182 A 4 4 0 1 1 684.9999980000001 181.99600000066667 Z" class="highcharts-point highcharts-color-1"></path><path fill="#323232" d="M 726 124 A 4 4 0 1 1 725.9999980000001 123.99600000066667 Z" class="highcharts-point highcharts-color-1"></path><path fill="#323232" d="M 768 124 A 4 4 0 1 1 767.9999980000001 123.99600000066667 Z" class="highcharts-point highcharts-color-1"></path><path fill="#323232" d="M 809 124 A 4 4 0 1 1 808.9999980000001 123.99600000066667 Z" class="highcharts-point highcharts-color-1"></path></g></g><text x="453" text-anchor="middle" class="highcharts-title" data-z-index="4" style="color: rgb(51, 51, 51); font-size: 18px; fill: rgb(51, 51, 51); white-space: pre;" y="24"></text><text x="453" text-anchor="middle" class="highcharts-subtitle" data-z-index="4" style="color: rgb(102, 102, 102); fill: rgb(102, 102, 102); white-space: pre;" y="24"></text><g class="highcharts-legend" data-z-index="7" transform="translate(299,370)"><rect fill="none" class="highcharts-legend-box" rx="0" ry="0" x="0" y="0" width="307" height="25" visibility="visible"></rect><g data-z-index="1"><g><g class="highcharts-legend-item highcharts-line-series highcharts-color-0 highcharts-series-0" data-z-index="1" transform="translate(8,3)"><path fill="none" d="M 0 11 L 16 11" class="highcharts-graph" stroke="#D14648" stroke-width="2"></path><path fill="#D14648" d="M 12 11 A 4 4 0 1 1 11.999998000000167 10.996000000666664 Z" class="highcharts-point"></path><text x="21" style="color: rgb(51, 51, 51); font-size: 12px; font-weight: bold; cursor: pointer; fill: rgb(51, 51, 51); white-space: pre;" text-anchor="start" data-z-index="2" y="15"><tspan>2013 13-inch MBP</tspan></text></g><g class="highcharts-legend-item highcharts-line-series highcharts-color-1 highcharts-series-1" data-z-index="1" transform="translate(163.921875,3)"><path fill="none" d="M 0 11 L 16 11" class="highcharts-graph" stroke="#323232" stroke-width="2"></path><path fill="#323232" d="M 12 11 A 4 4 0 1 1 11.999998000000167 10.996000000666664 Z" class="highcharts-point"></path><text x="21" y="15" style="color: rgb(51, 51, 51); font-size: 12px; font-weight: bold; cursor: pointer; fill: rgb(51, 51, 51); white-space: pre;" text-anchor="start" data-z-index="2"><tspan>2016 13-inch MBP</tspan></text></g></g></g></g><g class="highcharts-axis-labels highcharts-xaxis-labels " data-z-index="7"><text x="93.24272486435066" style="color: rgb(102, 102, 102); cursor: default; font-size: 11px; fill: rgb(102, 102, 102); white-space: pre;" text-anchor="end" transform="translate(0,0) rotate(-45 93.24272486435066 265)" y="265" opacity="1">Cuphead</text><text x="134.54272486435067" style="color: rgb(102, 102, 102); cursor: default; font-size: 11px; fill: rgb(102, 102, 102); white-space: pre;" text-anchor="end" transform="translate(0,0) rotate(-45 134.54272486435067 265)" y="265" opacity="1"><tspan>Borderlands 2</tspan></text><text x="175.84272486435069" style="color: rgb(102, 102, 102); cursor: default; font-size: 11px; fill: rgb(102, 102, 102); white-space: pre;" text-anchor="end" transform="translate(0,0) rotate(-45 175.84272486435069 265)" y="265" opacity="1">Hearthstone</text><text x="217.14272486435067" style="color: rgb(102, 102, 102); cursor: default; font-size: 11px; fill: rgb(102, 102, 102); white-space: pre;" text-anchor="end" transform="translate(0,0) rotate(-45 217.14272486435067 265)" y="265" opacity="1"><tspan>Into the Breach</tspan></text><text x="258.4427248643507" style="color: rgb(102, 102, 102); cursor: default; font-size: 11px; fill: rgb(102, 102, 102); white-space: pre;" text-anchor="end" transform="translate(0,0) rotate(-45 258.4427248643507 265)" y="265" opacity="1"><tspan>Left 4 Dead 2</tspan></text><text x="299.7427248643507" style="color: rgb(102, 102, 102); cursor: default; font-size: 11px; fill: rgb(102, 102, 102); white-space: pre;" text-anchor="end" transform="translate(0,0) rotate(-45 299.7427248643507 265)" y="265" opacity="1"><tspan>StarCraft 2</tspan></text><text x="341.0427248643507" style="color: rgb(102, 102, 102); cursor: default; font-size: 11px; fill: rgb(102, 102, 102); white-space: pre;" text-anchor="end" transform="translate(0,0) rotate(-45 341.0427248643507 265)" y="265" opacity="1"><tspan>Dead Cells</tspan></text><text x="382.34272486435066" style="color: rgb(102, 102, 102); cursor: default; font-size: 11px; fill: rgb(102, 102, 102); white-space: pre;" text-anchor="end" transform="translate(0,0) rotate(-45 382.34272486435066 265)" y="265" opacity="1"><tspan>Dirt Rally</tspan></text><text x="423.64272486435067" style="color: rgb(102, 102, 102); cursor: default; font-size: 11px; fill: rgb(102, 102, 102); white-space: pre;" text-anchor="end" transform="translate(0,0) rotate(-45 423.64272486435067 265)" y="265" opacity="1"><tspan>World of Warcraft</tspan></text><text x="464.9427248643507" style="color: rgb(102, 102, 102); cursor: default; font-size: 11px; fill: rgb(102, 102, 102); white-space: pre;" text-anchor="end" transform="translate(0,0) rotate(-45 464.9427248643507 265)" y="265" opacity="1"><tspan>Rocket League</tspan></text><text x="506.24272486435063" style="color: rgb(102, 102, 102); cursor: default; font-size: 11px; fill: rgb(102, 102, 102); white-space: pre;" text-anchor="end" transform="translate(0,0) rotate(-45 506.24272486435063 265)" y="265" opacity="1"><tspan>BioShock Remastered</tspan></text><text x="547.5427248643507" style="color: rgb(102, 102, 102); cursor: default; font-size: 11px; fill: rgb(102, 102, 102); white-space: pre;" text-anchor="end" transform="translate(0,0) rotate(-45 547.5427248643507 265)" y="265" opacity="1"><tspan>Civilization 5</tspan></text><text x="588.8427248643507" style="color: rgb(102, 102, 102); cursor: default; font-size: 11px; fill: rgb(102, 102, 102); white-space: pre;" text-anchor="end" transform="translate(0,0) rotate(-45 588.8427248643507 265)" y="265" opacity="1">Minecraft</text><text x="630.1427248643507" style="color: rgb(102, 102, 102); cursor: default; font-size: 11px; fill: rgb(102, 102, 102); white-space: pre;" text-anchor="end" transform="translate(0,0) rotate(-45 630.1427248643507 265)" y="265" opacity="1"><tspan>Lord of the Rings Online</tspan></text><text x="671.4427248643507" style="color: rgb(102, 102, 102); cursor: default; font-size: 11px; fill: rgb(102, 102, 102); white-space: pre;" text-anchor="end" transform="translate(0,0) rotate(-45 671.4427248643507 265)" y="265" opacity="1">RimWorld</text><text x="712.7427248643506" style="color: rgb(102, 102, 102); cursor: default; font-size: 11px; fill: rgb(102, 102, 102); white-space: pre;" text-anchor="end" transform="translate(0,0) rotate(-45 712.7427248643506 265)" y="265" opacity="1"><tspan>Sega All-Stars Racing</tspan></text><text x="754.0427248643507" style="color: rgb(102, 102, 102); cursor: default; font-size: 11px; fill: rgb(102, 102, 102); white-space: pre;" text-anchor="end" transform="translate(0,0) rotate(-45 754.0427248643507 265)" y="265" opacity="1">Undertale</text><text x="795.3427248643507" style="color: rgb(102, 102, 102); cursor: default; font-size: 11px; fill: rgb(102, 102, 102); white-space: pre;" text-anchor="end" transform="translate(0,0) rotate(-45 795.3427248643507 265)" y="265" opacity="1">SUPERHOT</text><text x="836.6427248643507" style="color: rgb(102, 102, 102); cursor: default; font-size: 11px; fill: rgb(102, 102, 102); white-space: pre;" text-anchor="end" transform="translate(0,0) rotate(-45 836.6427248643507 265)" y="265" opacity="1"><tspan>Darkest Dungeon</tspan></text><text x="877.9427248643507" style="color: rgb(102, 102, 102); cursor: default; font-size: 11px; fill: rgb(102, 102, 102); white-space: pre;" text-anchor="end" transform="translate(0,0) rotate(-45 877.9427248643507 265)" y="265" opacity="1"><tspan>Stardew Valley</tspan></text></g><g class="highcharts-axis-labels highcharts-yaxis-labels " data-z-index="7"><text x="55" style="color: rgb(102, 102, 102); cursor: default; font-size: 11px; fill: rgb(102, 102, 102); white-space: pre;" text-anchor="end" transform="translate(0,0)" y="62" opacity="1">100</text><text x="55" style="color: rgb(102, 102, 102); cursor: default; font-size: 11px; fill: rgb(102, 102, 102); white-space: pre;" text-anchor="end" transform="translate(0,0)" y="254" opacity="1">0</text><text x="55" style="color: rgb(102, 102, 102); cursor: default; font-size: 11px; fill: rgb(102, 102, 102); white-space: pre;" text-anchor="end" transform="translate(0,0)" y="206" opacity="1">25</text><text x="55" style="color: rgb(102, 102, 102); cursor: default; font-size: 11px; fill: rgb(102, 102, 102); white-space: pre;" text-anchor="end" transform="translate(0,0)" y="158" opacity="1">50</text><text x="55" style="color: rgb(102, 102, 102); cursor: default; font-size: 11px; fill: rgb(102, 102, 102); white-space: pre;" text-anchor="end" transform="translate(0,0)" y="110" opacity="1">75</text><text x="55" style="color: rgb(102, 102, 102); cursor: default; font-size: 11px; fill: rgb(102, 102, 102); white-space: pre;" text-anchor="end" transform="translate(0,0)" y="15" opacity="1">125</text></g><rect x="69.18" y="201.958" width="827.653" height="46.993" style="stroke: url(#pattern-0-1); stroke-width: 0px; stroke-miterlimit: 1; fill: url(#gradient-3);"></rect><text style="fill: rgba(51, 51, 51, 0.682); font-family: sans-serif; font-size: 16px; font-weight: bold; white-space: pre;" x="789.421" y="229.4">Unplayable</text><g transform="matrix(0, -0.55455, 0.480433, 0, 803.607666, 342.178925)"><g id="layer1" transform="translate(-149.48 -438.67)"><g id="g2649" transform="translate(585.06 111.53)"><path id="path2603" style="stroke-linejoin: round; fill-rule: evenodd; stroke-width: 0px; paint-order: stroke; stroke: rgba(50, 50, 50, 0.77); fill: rgba(50, 50, 50, 0.66);" d="M -243.229 489.059 L -266.976 500.29 L -243.229 511.72 L -243.229 506.055 L -240.492 506.055 L -239.445 506.055 L -206.834 506.055 L -206.834 511.72 L -183.087 500.29 L -206.834 489.059 L -206.834 494.723 L -239.445 494.723 L -240.492 494.723 L -243.229 494.723 L -243.229 489.059 Z"></path></g></g></g></svg> 